<?xml version="1.0" encoding="UTF-8"?>
<svg width="83px" height="80px" viewBox="0 0 83 80" version="1.1" xmlns="http://www.w3.org/2000/svg" xmlns:xlink="http://www.w3.org/1999/xlink">
    <!-- Generator: Sketch 52.3 (67297) - http://www.bohemiancoding.com/sketch -->
    <title>header__logo</title>
    <desc>Created with Sketch.</desc>
    <g id="Design-V3" stroke="none" stroke-width="1" fill="none" fill-rule="evenodd">
        <g id="Landingpage-Full-Magenta" transform="translate(-50.000000, -50.000000)" fill-rule="nonzero">
            <g id="01_Header" transform="translate(0.000000, -7.000000)">
                <g id="header__logo" transform="translate(50.000000, 57.000000)">
                    <polygon id="Shape" fill="#C2C4CA" opacity="0.98" points="75.2464561 65.9529289 75.2464561 75.0493726 4.96660554 75.0493726 4.96660554 4.95359715 75.2464561 4.95359715 75.2464561 14.0470711 80.210084 14.0470711 80.210084 0 0 0 0 80 80.210084 80 80.210084 65.9529289"></polygon>
                    <polygon id="Shape" fill="#A50D73" points="29.2941176 55.862069 50.9159664 55.862069 50.9159664 50.8969087 34.7128756 50.8969087 34.7128756 24.8275862 29.2941176 24.8275862"></polygon>
                    <path d="M83,50.4292187 L79.4648222,46.9254474 C78.2432369,48.065356 76.87528,49.0445752 75.3954663,49.8383982 C73.8713189,50.5877968 72.1816113,50.9563659 70.4768275,50.9112812 C69.050474,50.9254827 67.6381446,50.6345696 66.3384487,50.0588536 C65.090953,49.5024919 63.9727071,48.7022769 63.0523539,47.7073293 C62.1151236,46.6921903 61.3865803,45.5095267 60.906639,44.2241338 C60.3919352,42.8570868 60.1337007,41.4101832 60.144385,39.9531777 C60.1326161,38.5037394 60.3909301,37.064359 60.906639,35.7057369 C61.3863468,34.4334178 62.1152404,33.2651632 63.0523539,32.2666325 C63.9792849,31.2863864 65.096418,30.4969604 66.3384487,29.9445022 C67.6379118,29.367775 69.050251,29.0758567 70.4768275,29.0891353 C72.1404152,29.0571183 73.7874003,29.4180676 75.2784273,30.1414424 C76.7292064,30.876152 78.0685015,31.8051011 79.2577532,32.9015441 L82.78993,28.9157103 C82.0492263,28.2166513 81.2568063,27.5721472 80.4191401,26.9874604 C79.5658521,26.3924507 78.6516177,25.8861013 77.6912312,25.476606 C76.6496689,25.0357924 75.5632002,24.7047174 74.4501514,24.4889658 C73.1646433,24.2468732 71.8578696,24.1297083 70.5488515,24.1391765 C68.307621,24.1117672 66.0846677,24.5370265 64.0186758,25.3884238 C60.1584851,26.9878352 57.1195358,30.0438853 55.5888672,33.8656691 C54.0009721,37.8524765 54.0084747,42.2795198 55.6098742,46.2611418 C56.3674571,48.1300374 57.4897577,49.8363455 58.913975,51.2845857 C60.3511766,52.7137451 62.0611427,53.8522969 63.9466518,54.6355079 C65.9552164,55.4660552 68.116665,55.8832691 70.2967675,55.8612399 C71.6408124,55.8729878 72.9824644,55.7478809 74.3001014,55.4879355 C75.4523834,55.2598455 76.5713067,54.8925515 77.6312112,54.3944766 C78.634105,53.9191125 79.5861266,53.3470197 80.4731581,52.6866821 C81.3781569,52.004436 82.2233774,51.2493218 83,50.4292187 Z" id="Shape" fill="#C2C4CA"></path>
                </g>
            </g>
        </g>
    </g>
</svg>